<?xml version="1.0" standalone="no"?>
<!DOCTYPE svg PUBLIC "-//W3C//DTD SVG 20010904//EN"
 "http://www.w3.org/TR/2001/REC-SVG-20010904/DTD/svg10.dtd">
<svg version="1.0" xmlns="http://www.w3.org/2000/svg"
 width="1024.000000pt" height="1024.000000pt" viewBox="0 0 1024.000000 1024.000000"
 preserveAspectRatio="xMidYMid meet">

<g transform="translate(0.000000,1024.000000) scale(0.100000,-0.100000)"
fill="#000000" stroke="none">
<path d="M4880 8790 c-573 -70 -1075 -367 -1388 -823 -206 -300 -313 -635
-329 -1023 -19 -472 115 -835 481 -1299 175 -223 527 -631 936 -1085 43 -47
128 -141 190 -210 223 -248 229 -253 317 -269 58 -11 129 6 177 43 31 23 132
132 326 350 30 34 165 186 300 337 704 790 896 1035 1035 1323 35 72 75 169
89 216 121 403 103 837 -51 1230 -207 529 -611 913 -1167 1109 -210 74 -372
101 -636 106 -113 2 -239 0 -280 -5z m535 -610 c254 -54 488 -176 667 -349
193 -185 315 -401 380 -675 19 -78 22 -120 22 -296 0 -189 -2 -213 -26 -311
-72 -287 -257 -564 -497 -745 -154 -116 -382 -217 -576 -255 -108 -22 -427
-19 -535 5 -294 63 -497 171 -695 371 -262 262 -388 543 -402 890 -11 297 61
553 224 799 206 309 539 517 930 581 124 20 375 13 508 -15z"/>
<path d="M4589 7303 l-24 -28 28 24 c25 23 32 31 24 31 -2 0 -14 -12 -28 -27z"/>
<path d="M4935 7182 c-95 -72 -227 -212 -288 -303 -120 -180 -178 -348 -183
-527 l-3 -114 35 -48 c86 -119 223 -216 384 -271 88 -31 104 -33 230 -33 111
0 149 4 213 22 154 44 305 142 405 262 61 74 144 235 166 325 27 110 38 226
30 325 l-7 95 -13 -60 c-43 -206 -142 -393 -282 -534 -204 -206 -447 -290
-724 -251 -104 15 -158 41 -176 87 -37 93 -43 350 -11 506 38 187 139 387 267
530 45 49 30 46 -43 -11z"/>
<path d="M4489 7193 c-13 -16 -12 -17 4 -4 9 7 17 15 17 17 0 8 -8 3 -21 -13z"/>
<path d="M1120 3173 c0 -197 5 -389 10 -428 32 -220 203 -355 449 -355 246 0
412 119 456 327 11 52 15 155 15 441 l0 372 -112 0 -113 0 0 -373 c0 -334 -2
-377 -18 -424 -32 -91 -114 -143 -223 -143 -104 0 -179 44 -218 130 -20 43
-21 64 -24 428 l-3 382 -110 0 -109 0 0 -357z"/>
<path d="M2810 2970 l0 -561 102 3 102 3 -3 53 c-3 59 6 66 31 23 56 -100 256
-132 399 -64 112 53 178 137 204 259 52 247 -43 462 -231 524 -54 18 -83 22
-153 18 -96 -4 -151 -25 -208 -81 l-33 -31 0 207 0 207 -105 0 -105 0 0 -560z
m520 68 c81 -41 114 -119 108 -254 -3 -72 -7 -87 -33 -125 -43 -60 -94 -84
-180 -84 -85 0 -132 25 -171 90 -49 84 -43 234 12 318 49 75 173 100 264 55z"/>
<path d="M5660 2970 l0 -560 110 0 110 0 0 225 0 225 255 0 255 0 0 96 0 96
-237 -2 c-131 -1 -246 -2 -255 -1 -16 1 -18 15 -18 146 l0 145 270 0 270 0 0
95 0 95 -380 0 -380 0 0 -560z"/>
<path d="M6568 2973 l3 -558 104 -3 105 -3 0 561 0 560 -107 0 -108 0 3 -557z"/>
<path d="M2585 3218 c-48 -17 -108 -61 -130 -95 -11 -18 -22 -32 -25 -33 -3 0
-5 28 -5 62 l0 63 -102 3 -103 3 0 -406 0 -405 110 0 110 0 0 230 c0 246 5
277 53 328 34 37 95 64 159 69 l58 6 0 93 0 94 -47 -1 c-27 0 -61 -5 -78 -11z"/>
<path d="M4015 3216 c-133 -43 -194 -111 -207 -230 l-3 -29 102 -1 102 -1 5
31 c11 54 47 78 125 82 90 5 133 -14 155 -69 9 -22 16 -54 16 -73 0 -33 -1
-33 -52 -40 -29 -3 -84 -6 -123 -6 -140 -1 -256 -39 -312 -103 -79 -90 -63
-260 31 -332 108 -83 323 -72 427 22 l38 34 8 -43 9 -43 94 -3 95 -3 -3 273
c-2 150 -7 297 -13 325 -16 84 -62 142 -143 183 -66 34 -74 35 -190 37 -79 2
-135 -2 -161 -11z m293 -517 c-3 -28 -14 -62 -25 -77 -48 -65 -177 -101 -241
-68 -62 32 -73 107 -21 150 41 34 65 39 233 44 l59 2 -5 -51z"/>
<path d="M5060 3221 c-44 -14 -84 -38 -117 -71 l-32 -31 -3 48 -3 48 -102 3
-103 3 0 -406 0 -405 110 0 109 0 3 274 c3 312 3 309 89 354 81 43 186 13 224
-63 18 -36 20 -64 23 -302 l4 -263 106 0 107 0 -3 287 c-3 315 -9 358 -60 429
-16 21 -53 52 -83 69 -48 26 -65 30 -149 32 -52 1 -106 -1 -120 -6z"/>
<path d="M7176 3209 c-184 -64 -275 -214 -264 -434 4 -76 11 -105 36 -158 39
-84 105 -150 190 -190 64 -30 73 -32 187 -31 98 0 129 4 171 20 170 69 254
199 254 393 0 148 -37 241 -130 324 -75 68 -141 90 -275 94 -91 3 -120 0 -169
-18z m235 -163 c40 -17 80 -57 104 -104 23 -46 31 -157 15 -221 -40 -170 -272
-206 -364 -57 -51 82 -48 235 7 317 45 68 158 99 238 65z"/>
<path d="M7792 3203 c3 -10 61 -192 129 -405 l123 -388 111 0 111 0 28 88 c77
243 128 398 135 410 5 9 22 -30 45 -105 20 -65 58 -180 83 -255 l47 -138 110
0 111 0 123 393 c68 215 125 397 125 402 1 6 -41 11 -105 13 l-107 3 -9 -33
c-5 -18 -40 -142 -78 -276 l-69 -243 -27 83 c-14 46 -54 170 -88 276 l-61 193
-91 -3 -91 -3 -76 -245 c-43 -135 -82 -261 -88 -280 l-10 -35 -8 30 c-4 17
-40 143 -79 280 l-72 250 -113 3 c-105 2 -113 1 -109 -15z"/>
</g>
</svg>
