<?xml version="1.0" standalone="no"?>
<!DOCTYPE svg PUBLIC "-//W3C//DTD SVG 20010904//EN"
 "http://www.w3.org/TR/2001/REC-SVG-20010904/DTD/svg10.dtd">
<svg version="1.0" xmlns="http://www.w3.org/2000/svg"
 width="1024.000000pt" height="1024.000000pt" viewBox="0 0 1024.000000 1024.000000"
 preserveAspectRatio="xMidYMid meet">

<g transform="translate(0.000000,1024.000000) scale(0.100000,-0.100000)"
fill="#000000" stroke="none">
<path d="M4919 8418 c-52 -33 -137 -89 -189 -122 -52 -34 -164 -106 -248 -161
-85 -54 -159 -108 -165 -120 -9 -14 -12 -157 -14 -505 -1 -267 -5 -497 -10
-511 l-8 -26 -161 96 c-88 53 -183 112 -210 131 -134 97 -194 119 -228 84 -14
-14 -16 -86 -16 -645 0 -346 -2 -629 -5 -629 -13 0 -94 46 -169 95 -408 266
-636 405 -665 405 -33 0 -70 -25 -81 -54 -18 -49 41 -99 297 -252 45 -27 180
-110 300 -186 120 -75 242 -151 272 -169 l53 -33 -6 -54 c-6 -54 -37 -138 -67
-183 l-16 -24 -249 167 c-137 92 -302 203 -367 247 -65 45 -125 81 -133 81
-23 0 -74 -55 -74 -80 0 -40 21 -61 138 -137 64 -42 207 -136 318 -209 111
-72 211 -137 223 -143 11 -7 21 -15 21 -19 -1 -4 -40 -32 -88 -62 -48 -30
-163 -103 -255 -162 -92 -59 -169 -108 -171 -108 -8 0 -162 -93 -178 -108 -20
-17 -24 -72 -8 -102 14 -25 65 -42 96 -30 14 6 60 32 102 58 130 82 324 203
382 238 30 18 100 62 155 98 l100 64 45 -25 c25 -14 74 -45 110 -68 36 -23
129 -84 207 -135 l143 -92 -133 -82 c-72 -45 -197 -125 -277 -178 -164 -108
-449 -290 -715 -457 -99 -63 -190 -125 -202 -138 -31 -33 -29 -69 6 -104 37
-36 67 -37 117 -1 103 74 188 131 342 229 92 58 210 134 262 168 243 159 433
279 545 345 22 13 73 46 113 72 41 26 80 48 89 48 14 0 273 -165 273 -174 0
-2 -21 -17 -47 -32 -54 -31 -350 -225 -588 -384 -88 -59 -234 -153 -325 -210
-398 -248 -450 -286 -450 -333 0 -41 22 -59 71 -59 62 1 88 5 86 14 -1 5 16
18 38 31 22 12 42 25 45 28 5 6 222 148 412 270 57 37 160 103 230 148 75 49
132 80 139 75 8 -4 9 -3 5 4 -7 11 156 123 416 286 l107 67 33 -17 c18 -9 52
-32 76 -50 l43 -32 -53 -37 c-99 -68 -391 -260 -462 -303 -154 -95 -415 -275
-496 -343 -80 -67 -132 -105 -190 -136 -22 -12 -11 -14 95 -11 106 3 124 6
155 26 32 22 261 170 440 287 41 27 172 112 290 190 118 78 250 163 292 189
l77 47 33 -17 c54 -27 168 -96 173 -104 2 -4 -74 -58 -171 -121 -465 -303
-624 -410 -633 -428 -27 -50 11 -111 68 -111 34 0 44 6 456 278 154 102 313
207 352 233 l73 48 337 -226 c186 -124 356 -234 378 -244 22 -10 54 -28 70
-39 26 -17 46 -20 140 -20 l109 0 -49 50 c-28 28 -73 65 -102 83 -29 18 -205
135 -392 261 l-340 228 27 23 c43 36 179 115 198 115 19 0 38 -11 299 -185
108 -71 229 -150 269 -175 70 -44 171 -113 311 -214 39 -27 101 -80 139 -118
38 -37 77 -68 86 -68 83 0 141 92 93 148 -10 11 -223 157 -473 325 -533 356
-575 385 -575 397 0 11 370 260 385 260 6 0 57 -33 114 -72 58 -40 153 -104
213 -142 192 -123 401 -259 531 -345 193 -128 250 -161 275 -161 51 1 95 71
74 118 -6 13 -60 54 -126 94 -326 202 -944 599 -938 604 4 4 480 319 557 369
525 341 520 338 520 374 0 57 -12 89 -37 100 -31 14 -16 23 -323 -183 -369
-247 -611 -405 -725 -471 -55 -32 -107 -64 -116 -72 -24 -20 -42 -16 -90 19
-24 18 -65 46 -91 63 l-46 31 191 124 c391 253 445 288 577 368 127 77 204
128 505 332 115 78 125 87 125 116 0 36 -24 61 -67 70 -36 7 -58 -4 -243 -122
-257 -165 -335 -214 -343 -214 -4 0 -7 263 -7 585 1 322 -2 589 -5 594 -7 12
-125 89 -190 126 -62 34 -227 134 -297 180 -50 33 -92 45 -100 27 -3 -7 -61
-46 -344 -229 -36 -24 -68 -43 -71 -43 -3 0 -3 213 -2 474 4 548 17 487 -115
563 -45 25 -128 75 -185 111 -253 156 -401 242 -419 242 -6 0 -52 -28 -103
-62z m34 -1499 l5 -1325 -139 -84 c-76 -45 -146 -94 -155 -107 -14 -23 -18
-24 -31 -10 -13 13 -15 99 -14 661 2 754 9 701 -102 780 -61 43 -66 51 -73 93
-4 25 -4 76 0 114 3 38 6 254 6 479 l0 411 103 66 c56 36 145 94 197 127 101
66 194 123 196 122 1 -1 4 -598 7 -1327z m309 1242 c64 -42 164 -106 222 -144
l106 -67 0 -453 c0 -348 -3 -457 -12 -468 -7 -9 -35 -33 -61 -54 -98 -78 -91
-31 -88 -580 l2 -482 -106 -62 c-58 -35 -128 -81 -155 -102 -27 -21 -52 -39
-55 -39 -2 0 -5 571 -5 1270 0 1205 1 1269 17 1263 10 -4 71 -41 135 -82z
m1196 -1113 c77 -46 142 -90 144 -98 2 -8 2 -284 0 -613 l-3 -597 -157 -103
c-86 -57 -185 -121 -220 -143 -158 -100 -716 -469 -796 -527 l-89 -64 -74 46
c-40 25 -73 48 -73 51 0 3 46 35 103 71 56 37 161 105 234 153 73 47 199 128
282 180 228 143 327 207 392 254 l59 42 0 713 c0 391 0 716 0 721 0 20 66 -8
198 -86z m-358 -311 l0 -393 -32 -16 c-18 -9 -82 -51 -143 -93 -99 -70 -329
-215 -340 -215 -3 0 -5 182 -5 403 l0 404 53 28 c28 15 66 38 82 50 17 12 62
41 100 64 39 23 113 69 165 101 52 33 101 60 108 60 9 0 12 -85 12 -393z
m-2175 273 c17 -10 116 -69 220 -132 105 -63 218 -130 253 -148 l62 -32 0
-594 c0 -327 -3 -594 -5 -594 -19 0 -179 96 -448 269 -70 45 -140 86 -155 92
l-27 9 -4 597 -3 596 38 -23 c22 -12 53 -31 69 -40z m2175 -1031 l0 -170 -30
-45 c-17 -24 -34 -44 -39 -44 -8 0 -23 -9 -231 -146 -74 -48 -161 -104 -193
-124 -220 -135 -374 -232 -450 -282 -48 -33 -94 -61 -101 -64 -17 -7 -286 169
-286 186 0 7 85 66 190 132 175 111 229 145 418 269 114 74 279 182 367 238
88 57 201 130 250 162 50 32 93 59 98 59 4 0 7 -77 7 -171z m-2095 -382 c139
-89 365 -236 438 -285 l39 -26 -24 -18 c-13 -9 -66 -47 -120 -84 l-96 -66 -64
38 c-34 21 -88 54 -118 73 -30 20 -67 43 -81 51 -71 41 -269 176 -269 183 0 5
9 22 21 38 24 34 58 120 65 164 9 57 12 59 42 39 15 -10 90 -58 167 -107z
m648 -428 c42 -22 247 -161 247 -168 0 -8 -100 -72 -174 -110 l-58 -31 -87 52
c-125 75 -184 119 -173 130 22 22 198 137 210 138 7 0 23 -5 35 -11z m1328
-165 l90 -56 -78 -55 c-43 -30 -128 -88 -189 -129 l-111 -74 -101 57 -101 57
37 25 c172 120 339 230 350 231 7 0 53 -25 103 -56z m-849 -141 l71 -46 -34
-28 c-35 -29 -172 -114 -199 -124 -9 -3 -47 15 -89 42 -73 46 -74 47 -52 62
65 45 217 140 225 141 4 0 40 -21 78 -47z m314 -214 c52 -34 94 -64 94 -68 0
-3 -50 -39 -110 -79 l-110 -74 -46 27 c-26 15 -61 37 -79 49 -18 11 -48 29
-66 39 l-32 18 54 33 c30 18 83 52 118 74 35 23 68 42 73 42 5 0 52 -27 104
-61z"/>
<path d="M4110 6780 c0 -5 5 -10 11 -10 5 0 7 5 4 10 -3 6 -8 10 -11 10 -2 0
-4 -4 -4 -10z"/>
<path d="M3883 6455 c0 -8 4 -12 9 -9 5 3 6 10 3 15 -9 13 -12 11 -12 -6z"/>
<path d="M4157 6449 c7 -7 15 -10 18 -7 3 3 -2 9 -12 12 -14 6 -15 5 -6 -5z"/>
<path d="M4150 6320 c0 -5 5 -10 10 -10 6 0 10 5 10 10 0 6 -4 10 -10 10 -5 0
-10 -4 -10 -10z"/>
<path d="M3850 6240 c0 -5 5 -10 11 -10 5 0 7 5 4 10 -3 6 -8 10 -11 10 -2 0
-4 -4 -4 -10z"/>
<path d="M4070 6180 c-11 -7 -12 -12 -4 -20 8 -8 13 -6 17 9 3 12 4 21 4 21
-1 0 -9 -5 -17 -10z"/>
<path d="M3950 6120 c-13 -8 -12 -10 3 -10 9 0 17 5 17 10 0 12 -1 12 -20 0z"/>
<path d="M4345 6110 c3 -5 8 -10 11 -10 2 0 4 5 4 10 0 6 -5 10 -11 10 -5 0
-7 -4 -4 -10z"/>
<path d="M4145 6080 c-3 -5 -1 -10 4 -10 6 0 11 5 11 10 0 6 -2 10 -4 10 -3 0
-8 -4 -11 -10z"/>
<path d="M3920 5899 c0 -5 5 -7 10 -4 6 3 10 8 10 11 0 2 -4 4 -10 4 -5 0 -10
-5 -10 -11z"/>
<path d="M3920 5860 c0 -5 5 -10 11 -10 5 0 7 5 4 10 -3 6 -8 10 -11 10 -2 0
-4 -4 -4 -10z"/>
<path d="M3980 5850 c6 -11 13 -20 16 -20 2 0 0 9 -6 20 -6 11 -13 20 -16 20
-2 0 0 -9 6 -20z"/>
<path d="M4330 5850 c0 -5 5 -10 11 -10 5 0 7 5 4 10 -3 6 -8 10 -11 10 -2 0
-4 -4 -4 -10z"/>
<path d="M4190 5760 c0 -5 5 -10 10 -10 6 0 10 5 10 10 0 6 -4 10 -10 10 -5 0
-10 -4 -10 -10z"/>
<path d="M4135 5740 c-3 -5 -1 -10 4 -10 6 0 11 5 11 10 0 6 -2 10 -4 10 -3 0
-8 -4 -11 -10z"/>
<path d="M4235 5710 c3 -5 8 -10 11 -10 2 0 4 5 4 10 0 6 -5 10 -11 10 -5 0
-7 -4 -4 -10z"/>
<path d="M4340 5713 c0 -15 18 -35 23 -27 3 5 -1 15 -9 22 -8 7 -14 9 -14 5z"/>
<path d="M4387 5699 c7 -7 15 -10 18 -7 3 3 -2 9 -12 12 -14 6 -15 5 -6 -5z"/>
<path d="M4345 5640 c-3 -5 -1 -10 4 -10 6 0 11 5 11 10 0 6 -2 10 -4 10 -3 0
-8 -4 -11 -10z"/>
<path d="M4325 5609 c-4 -6 -5 -12 -2 -15 2 -3 7 2 10 11 7 17 1 20 -8 4z"/>
<path d="M4359 5597 c6 -8 7 -18 3 -22 -4 -5 -1 -5 6 -1 10 6 10 11 1 22 -6 8
-14 14 -16 14 -3 0 0 -6 6 -13z"/>
<path d="M7390 5960 c0 -5 5 -10 10 -10 6 0 10 5 10 10 0 6 -4 10 -10 10 -5 0
-10 -4 -10 -10z"/>
<path d="M7395 5910 c3 -5 8 -10 11 -10 2 0 4 5 4 10 0 6 -5 10 -11 10 -5 0
-7 -4 -4 -10z"/>
<path d="M3353 3733 c9 -2 23 -2 30 0 6 3 -1 5 -18 5 -16 0 -22 -2 -12 -5z"/>
<path d="M3443 3733 c9 -2 23 -2 30 0 6 3 -1 5 -18 5 -16 0 -22 -2 -12 -5z"/>
<path d="M2880 2695 l0 -585 95 0 95 0 0 41 0 41 41 -36 c51 -43 120 -59 233
-54 96 4 150 27 226 95 175 157 182 486 15 658 -46 47 -147 99 -213 110 -59 9
-166 -12 -224 -44 -27 -14 -48 -29 -48 -33 0 -5 -4 -8 -10 -8 -6 0 -10 73 -10
200 l0 200 -100 0 -100 0 0 -585z m501 68 c46 -24 58 -36 84 -87 27 -54 30
-69 30 -155 0 -101 -11 -137 -59 -189 -63 -70 -188 -83 -261 -28 -57 44 -89
122 -89 221 -1 107 35 184 108 233 62 41 112 43 187 5z"/>
<path d="M6440 2695 l0 -585 95 0 95 0 0 585 0 585 -95 0 -95 0 0 -585z"/>
<path d="M1222 2828 l3 -433 31 -66 c41 -87 91 -141 162 -174 99 -47 139 -56
257 -54 222 4 355 87 416 259 23 63 24 76 27 483 l4 417 -111 0 -110 0 -3
-412 -3 -413 -26 -45 c-16 -27 -45 -57 -74 -75 -42 -26 -55 -29 -128 -28 -123
1 -171 29 -215 123 -15 30 -17 90 -20 443 l-3 407 -105 0 -105 0 3 -432z"/>
<path d="M5590 2685 l0 -575 110 0 110 0 0 235 0 235 225 0 225 0 0 95 0 95
-225 0 -225 0 0 150 0 150 248 0 247 0 -3 95 -3 95 -355 0 -354 0 0 -575z"/>
<path d="M4065 2956 c-138 -35 -234 -123 -249 -228 l-7 -48 89 0 90 0 6 33
c11 53 55 79 142 85 118 7 174 -29 174 -113 0 -52 -4 -54 -130 -65 -165 -13
-292 -56 -343 -114 -44 -52 -58 -95 -56 -172 2 -95 31 -143 115 -194 57 -34
60 -35 169 -35 122 1 184 20 224 72 l21 26 0 -47 0 -46 96 0 95 0 -3 323 c-3
307 -4 324 -25 369 -35 77 -94 121 -193 144 -88 20 -161 24 -215 10z m242
-511 c-11 -69 -50 -128 -102 -156 -100 -55 -225 -12 -225 77 0 25 54 72 96 83
21 6 75 14 119 19 128 15 118 17 112 -23z"/>
<path d="M7105 2952 c-38 -10 -89 -28 -112 -40 -63 -33 -130 -108 -169 -190
-31 -64 -35 -84 -37 -160 -3 -109 6 -158 37 -224 41 -86 105 -150 192 -193 72
-36 85 -39 185 -43 84 -4 118 -1 160 13 101 34 202 115 245 196 80 155 57 380
-51 507 -101 117 -292 174 -450 134z m189 -171 c48 -21 108 -76 131 -121 20
-40 30 -165 16 -215 -25 -95 -103 -166 -197 -180 -58 -10 -143 25 -189 78 -57
64 -67 98 -63 203 3 81 7 98 34 140 23 38 44 56 89 79 73 37 123 41 179 16z"/>
<path d="M2582 2934 c-31 -16 -63 -41 -77 -62 l-25 -37 0 53 0 52 -95 0 -95 0
0 -415 0 -415 95 0 95 0 0 208 c0 114 4 234 10 266 18 114 87 176 195 176 l55
0 0 100 0 100 -53 0 c-37 0 -69 -8 -105 -26z"/>
<path d="M4985 2940 c-22 -11 -57 -37 -77 -57 l-38 -37 0 47 0 47 -97 0 -98 0
3 -412 2 -413 95 -3 95 -3 0 257 c0 277 5 317 49 357 70 66 151 83 222 46 63
-32 66 -47 73 -369 l7 -285 99 -3 100 -3 0 278 c0 160 -5 297 -11 323 -6 25
-12 54 -15 65 -8 41 -69 114 -122 146 -49 29 -62 33 -150 36 -83 3 -103 0
-137 -17z"/>
<path d="M7697 2888 c8 -29 33 -107 55 -173 22 -66 41 -124 42 -130 1 -5 11
-37 21 -70 10 -33 19 -64 21 -70 2 -10 67 -222 84 -278 10 -30 10 -32 10 -47
0 -6 43 -10 108 -10 l107 0 19 68 c11 37 28 94 38 127 11 33 22 71 24 84 3 14
7 28 10 33 6 9 52 169 60 208 11 52 13 49 48 -70 15 -52 38 -133 52 -180 14
-47 27 -92 29 -100 16 -61 45 -151 50 -160 3 -6 48 -10 105 -10 85 0 99 2 104
18 2 9 15 51 27 92 13 41 23 77 24 80 0 3 5 16 9 30 73 234 115 368 150 478
l43 132 -103 0 -103 0 -11 -42 c-11 -41 -23 -82 -41 -138 -4 -14 -11 -41 -14
-60 -7 -40 -15 -67 -46 -160 -11 -36 -23 -76 -26 -89 -14 -76 -27 -46 -109
239 -15 52 -38 130 -51 173 l-25 77 -99 0 c-80 0 -99 -3 -99 -15 0 -8 -6 -34
-14 -57 -8 -24 -26 -83 -41 -133 -52 -171 -97 -310 -105 -318 -4 -5 -11 7 -15
25 -4 18 -9 38 -11 43 -4 13 -96 321 -118 398 l-17 57 -104 0 -104 0 16 -52z"/>
</g>
</svg>
